# Blender 4.1.1
# www.blender.org
mtllib glassScreen.mtl
o 平面.001
v -16.000000 9.000000 0.000000
v -6.397362 9.000000 0.000000
v -16.000000 6.771604 0.000000
v -5.371849 5.934775 0.000000
v -6.690934 3.724326 0.000000
vn -0.0000 -0.0000 1.0000
vt 0.000000 0.876200
vt 0.290908 0.706907
vt 0.332130 0.829710
vt 0.300082 1.000000
vt 0.000000 1.000000
s 0
f 3/1/1 5/2/1 4/3/1 2/4/1 1/5/1
o 平面.002
v -3.542694 9.000000 0.000000
v -6.397362 9.000000 0.000000
v -5.371849 5.934775 0.000000
vn -0.0000 -0.0000 1.0000
vt 0.300082 1.000000
vt 0.332130 0.829710
vt 0.389291 1.000000
s 0
f 7/6/2 8/7/2 6/8/2
o 平面.003
v -4.379129 2.967568 0.000000
v -5.371849 5.934775 0.000000
v -6.690934 3.724326 0.000000
v -5.371849 5.934775 0.000000
vn -0.0000 -0.0000 1.0000
vt 0.363152 0.664865
vt 0.332130 0.829710
vt 0.290908 0.706907
s 0
f 9/9/3 10/10/3 11/11/3
l 10 12
o 平面.004
v 2.495222 9.000000 0.000000
v -3.542694 9.000000 0.000000
v -4.379129 2.967568 0.000000
v 1.927808 0.905105 0.000000
v -5.371849 5.934775 0.000000
v 7.035047 3.255041 0.000000
v 5.912495 1.918357 0.000000
vn -0.0000 -0.0000 1.0000
vt 0.389291 1.000000
vt 0.332130 0.829710
vt 0.363152 0.664865
vt 0.560244 0.550284
vt 0.684765 0.606575
vt 0.719845 0.680836
vt 0.577976 1.000000
s 0
f 14/12/4 17/13/4 15/14/4 16/15/4 19/16/4 18/17/4 13/18/4
o 平面.005
v 11.859684 9.000000 0.000000
v 2.495222 9.000000 0.000000
v 7.035047 3.255041 0.000000
vn -0.0000 -0.0000 1.0000
vt 0.577976 1.000000
vt 0.719845 0.680836
vt 0.870615 1.000000
s 0
f 21/19/5 22/20/5 20/21/5
o 平面.006
v 16.000000 9.000000 0.000000
v 11.859684 9.000000 0.000000
v 16.000000 4.483472 0.000000
v 7.725993 2.379505 0.000000
v 7.035047 3.255041 0.000000
vn -0.0000 -0.0000 1.0000
vt 0.870615 1.000000
vt 0.719845 0.680836
vt 0.741437 0.632195
vt 1.000000 0.749082
vt 1.000000 1.000000
s 0
f 24/22/6 27/23/6 26/24/6 25/25/6 23/26/6
o 平面.007
v 7.725993 2.379505 0.000000
v 7.035047 3.255041 0.000000
v 5.912495 1.918357 0.000000
vn -0.0000 -0.0000 1.0000
vt 0.741437 0.632195
vt 0.719845 0.680836
vt 0.684765 0.606575
s 0
f 28/27/7 29/28/7 30/29/7
o 平面.008
v 16.000000 -3.701405 -0.000000
v 16.000000 4.483472 0.000000
v 7.725993 2.379505 0.000000
v 11.324240 -2.170802 -0.000000
vn -0.0000 -0.0000 1.0000
vt 1.000000 0.749082
vt 0.741437 0.632195
vt 0.853882 0.379400
vt 1.000000 0.294366
s 0
f 32/30/8 33/31/8 34/32/8 31/33/8
o 平面.009
v 7.725993 2.379505 0.000000
v 4.386073 0.100396 0.000000
v 5.912495 1.918357 0.000000
v 11.324240 -2.170802 -0.000000
vn -0.0000 -0.0000 1.0000
vt 0.637065 0.505578
vt 0.853882 0.379400
vt 0.741437 0.632195
vt 0.684765 0.606575
s 0
f 36/34/9 38/35/9 35/36/9 37/37/9
o 平面.010
v 4.386073 0.100396 0.000000
v 1.927808 0.905105 0.000000
v 5.912495 1.918357 0.000000
vn -0.0000 -0.0000 1.0000
vt 0.637065 0.505578
vt 0.684765 0.606575
vt 0.560244 0.550284
s 0
f 39/38/10 41/39/10 40/40/10
o 平面.011
v 4.386073 0.100396 0.000000
v 11.324240 -2.170802 -0.000000
v 0.246522 -4.833299 -0.000000
v 13.257990 -4.621850 -0.000000
vn -0.0000 -0.0000 1.0000
vt 0.637065 0.505578
vt 0.507704 0.231483
vt 0.914312 0.243231
vt 0.853882 0.379400
s 0
f 42/41/11 44/42/11 45/43/11 43/44/11
o 平面.012
v 16.000000 -4.576473 -0.000000
v 16.000000 -3.701405 -0.000000
v 11.324240 -2.170802 -0.000000
v 13.257990 -4.621850 -0.000000
vn -0.0000 -0.0000 1.0000
vt 1.000000 0.294366
vt 0.853882 0.379400
vt 0.914312 0.243231
vt 1.000000 0.245751
s 0
f 47/45/12 48/46/12 49/47/12 46/48/12
o 平面.013
v 16.000000 -8.097372 -0.000000
v 16.000000 -4.576473 -0.000000
v 13.257990 -4.621850 -0.000000
vn -0.0000 -0.0000 1.0000
vt 1.000000 0.245751
vt 0.914312 0.243231
vt 1.000000 0.050146
s 0
f 51/49/13 52/50/13 50/51/13
o 平面.014
v 16.000000 -9.000000 -0.000000
v -0.375217 -9.000000 -0.000000
v 16.000000 -8.097372 -0.000000
v -1.194600 -6.550890 -0.000000
v 0.246522 -4.833299 -0.000000
v 13.257990 -4.621850 -0.000000
vn -0.0000 -0.0000 1.0000
vt 1.000000 0.050146
vt 0.914312 0.243231
vt 0.507704 0.231483
vt 0.462669 0.136062
vt 0.488274 0.000000
vt 1.000000 0.000000
s 0
f 55/52/14 58/53/14 57/54/14 56/55/14 54/56/14 53/57/14
o 平面.015
v -3.254175 -9.000000 -0.000000
v -0.375217 -9.000000 -0.000000
v -1.194600 -6.550890 -0.000000
vn -0.0000 -0.0000 1.0000
vt 0.488274 0.000000
vt 0.462669 0.136062
vt 0.398307 0.000000
s 0
f 60/58/15 61/59/15 59/60/15
o 平面.016
v -1.194600 -6.550890 -0.000000
v 0.246522 -4.833299 -0.000000
v -1.758213 -4.866270 -0.000000
vn -0.0000 -0.0000 1.0000
vt 0.445056 0.229652
vt 0.462669 0.136062
vt 0.507704 0.231483
s 0
f 64/61/16 62/62/16 63/63/16
o 平面.017
v -3.248712 -0.411214 -0.000000
v 4.386073 0.100396 0.000000
v 1.927808 0.905105 0.000000
v 0.246522 -4.833299 -0.000000
v -1.758213 -4.866270 -0.000000
vn -0.0000 -0.0000 1.0000
vt 0.445056 0.229652
vt 0.507704 0.231483
vt 0.637065 0.505578
vt 0.560244 0.550284
vt 0.398478 0.477155
s 0
f 69/64/17 68/65/17 66/66/17 67/67/17 65/68/17
o 平面.018
v -3.248712 -0.411214 -0.000000
v -4.379129 2.967568 0.000000
v 1.927808 0.905105 0.000000
vn -0.0000 -0.0000 1.0000
vt 0.398478 0.477155
vt 0.560244 0.550284
vt 0.363152 0.664865
s 0
f 70/69/18 72/70/18 71/71/18
o 平面.019
v -10.216502 -2.183538 -0.000000
v -3.248712 -0.411214 -0.000000
v -4.379129 2.967568 0.000000
v -6.690934 3.724326 0.000000
vn -0.0000 -0.0000 1.0000
vt 0.398478 0.477155
vt 0.363152 0.664865
vt 0.290908 0.706907
vt 0.180734 0.378692
s 0
f 74/72/19 75/73/19 76/74/19 73/75/19
o 平面.020
v -16.000000 6.771604 0.000000
v -16.000000 -3.654626 -0.000000
v -10.216502 -2.183538 -0.000000
v -6.690934 3.724326 0.000000
vn -0.0000 -0.0000 1.0000
vt 0.000000 0.296965
vt 0.180734 0.378692
vt 0.290908 0.706907
vt 0.000000 0.876200
s 0
f 78/76/20 79/77/20 80/78/20 77/79/20
o 平面.021
v -16.000000 -3.654626 -0.000000
v -16.000000 -5.099992 -0.000000
v -10.216502 -2.183538 -0.000000
v -11.917339 -5.034278 -0.000000
vn -0.0000 -0.0000 1.0000
vt 0.000000 0.216667
vt 0.127583 0.220318
vt 0.180734 0.378692
vt 0.000000 0.296965
s 0
f 82/80/21 84/81/21 83/82/21 81/83/21
o 平面.022
v -10.216502 -2.183538 -0.000000
v -3.248712 -0.411214 -0.000000
v -1.758213 -4.866270 -0.000000
v -11.917339 -5.034278 -0.000000
vn -0.0000 -0.0000 1.0000
vt 0.398478 0.477155
vt 0.180734 0.378692
vt 0.127583 0.220318
vt 0.445056 0.229652
s 0
f 86/84/22 85/85/22 88/86/22 87/87/22
o 平面.023
v -16.000000 -9.000000 -0.000000
v -14.283409 -9.000000 -0.000000
v -16.000000 -5.099992 -0.000000
v -11.917339 -5.034278 -0.000000
vn -0.0000 -0.0000 1.0000
vt 0.000000 0.000000
vt 0.053643 0.000000
vt 0.127583 0.220318
vt 0.000000 0.216667
s 0
f 89/88/23 90/89/23 92/90/23 91/91/23
o 平面.024
v -14.283409 -9.000000 -0.000000
v -3.254175 -9.000000 -0.000000
v -1.194600 -6.550890 -0.000000
v -1.758213 -4.866270 -0.000000
v -11.917339 -5.034278 -0.000000
vn -0.0000 -0.0000 1.0000
vt 0.398307 0.000000
vt 0.462669 0.136062
vt 0.445056 0.229652
vt 0.127583 0.220318
vt 0.053643 0.000000
s 0
f 94/92/24 95/93/24 96/94/24 97/95/24 93/96/24
