# Blender 4.1.1
# www.blender.org
mtllib glassScreen.mtl
o 平面.001
v 16.000000 5.657755 -0.000000
v 16.000000 -0.381358 0.000000
v 1.541018 1.180358 -0.000000
vn -0.0000 -0.0000 -1.0000
vt 1.000000 0.521187
vt 0.548157 0.434425
vt 1.000000 0.185680
s 0
f 2/1/1 3/2/1 1/3/1
o 平面.002
v -16.000000 -0.871725 0.000000
v -16.000000 5.226491 -0.000000
v 1.541018 1.180358 -0.000000
vn -0.0000 -0.0000 -1.0000
vt 0.000000 0.209639
vt 0.548157 0.434425
vt 0.000000 0.548429
s 0
f 5/4/2 6/5/2 4/6/2
o 平面.003
v -5.653769 9.000000 -0.000000
v -0.610397 9.000000 -0.000000
v 1.541018 1.180358 -0.000000
vn -0.0000 -0.0000 -1.0000
vt 0.480925 0.000000
vt 0.548157 0.434425
vt 0.323320 0.000000
s 0
f 8/7/3 9/8/3 7/9/3
o 平面.004
v 0.998562 -9.000000 0.000000
v -6.004828 -9.000000 0.000000
v 1.541018 1.180358 -0.000000
vn -0.0000 -0.0000 -1.0000
vt 0.312349 1.000000
vt 0.548157 0.434425
vt 0.531205 1.000000
s 0
f 11/10/4 12/11/4 10/12/4
o 平面.005
v 13.477619 -9.000000 0.000000
v 6.368745 -9.000000 0.000000
v 1.541018 1.180358 -0.000000
vn -0.0000 -0.0000 -1.0000
vt 0.699023 1.000000
vt 0.548157 0.434425
vt 0.921176 1.000000
s 0
f 14/13/5 15/14/5 13/15/5
o 平面.006
v -16.000000 -8.121371 0.000000
v -16.000000 -0.871725 0.000000
v 1.541018 1.180358 -0.000000
vn -0.0000 -0.0000 -1.0000
vt 0.000000 0.548429
vt 0.548157 0.434425
vt 0.000000 0.951187
s 0
f 17/16/6 18/17/6 16/18/6
o 平面.007
v 16.000000 9.000000 -0.000000
v 9.404586 9.000000 -0.000000
v 16.000000 5.657755 -0.000000
v 1.541018 1.180358 -0.000000
vn -0.0000 -0.0000 -1.0000
vt 1.000000 0.185680
vt 0.548157 0.434425
vt 0.793893 0.000000
vt 1.000000 0.000000
s 0
f 21/19/7 22/20/7 20/21/7 19/22/7
o 平面.008
v 16.000000 -9.000000 0.000000
v 13.477619 -9.000000 0.000000
v 16.000000 -3.896991 0.000000
v 1.541018 1.180358 -0.000000
vn -0.0000 -0.0000 -1.0000
vt 0.921176 1.000000
vt 0.548157 0.434425
vt 1.000000 0.716499
vt 1.000000 1.000000
s 0
f 24/23/8 26/24/8 25/25/8 23/26/8
o 平面.009
v 6.368745 -9.000000 0.000000
v 0.998562 -9.000000 0.000000
v 1.541018 1.180358 -0.000000
vn -0.0000 -0.0000 -1.0000
vt 0.531205 1.000000
vt 0.548157 0.434425
vt 0.699023 1.000000
s 0
f 28/27/9 29/28/9 27/29/9
o 平面.010
v -12.223642 9.000000 -0.000000
v -5.653769 9.000000 -0.000000
v 1.541018 1.180358 -0.000000
vn -0.0000 -0.0000 -1.0000
vt 0.323320 0.000000
vt 0.548157 0.434425
vt 0.118011 0.000000
s 0
f 31/30/10 32/31/10 30/32/10
o 平面.011
v -16.000000 -9.000000 0.000000
v -6.004828 -9.000000 0.000000
v -16.000000 -8.121371 0.000000
v 1.541018 1.180358 -0.000000
vn -0.0000 -0.0000 -1.0000
vt 0.000000 0.951187
vt 0.548157 0.434425
vt 0.312349 1.000000
vt 0.000000 1.000000
s 0
f 35/33/11 36/34/11 34/35/11 33/36/11
o 平面.012
v -16.000000 9.000000 -0.000000
v -12.223642 9.000000 -0.000000
v -16.000000 5.226491 -0.000000
v 1.541018 1.180358 -0.000000
vn -0.0000 -0.0000 -1.0000
vt 0.000000 0.000000
vt 0.118011 0.000000
vt 0.548157 0.434425
vt 0.000000 0.209639
s 0
f 37/37/12 38/38/12 40/39/12 39/40/12
o 平面.013
v 3.537053 9.000000 -0.000000
v 9.404586 9.000000 -0.000000
v 1.541018 1.180358 -0.000000
vn -0.0000 -0.0000 -1.0000
vt 0.793893 0.000000
vt 0.548157 0.434425
vt 0.610533 0.000000
s 0
f 42/41/13 43/42/13 41/43/13
o 平面.014
v 16.000000 -0.381358 0.000000
v 16.000000 -3.896991 0.000000
v 1.541018 1.180358 -0.000000
vn -0.0000 -0.0000 -1.0000
vt 1.000000 0.716499
vt 0.548157 0.434425
vt 1.000000 0.521187
s 0
f 45/44/14 46/45/14 44/46/14
o 平面.015
v -0.610397 9.000000 -0.000000
v 3.537053 9.000000 -0.000000
v 1.541018 1.180358 -0.000000
vn -0.0000 -0.0000 -1.0000
vt 0.610533 0.000000
vt 0.548157 0.434425
vt 0.480925 0.000000
s 0
f 48/47/15 49/48/15 47/49/15
